<?xml version="1.0" encoding="UTF-8" standalone="no"?>
<!DOCTYPE svg PUBLIC "-//W3C//DTD SVG 1.1//EN" "http://www.w3.org/Graphics/SVG/1.1/DTD/svg11.dtd">
<svg width="100%" height="100%" viewBox="0 0 464 114" version="1.1" xmlns="http://www.w3.org/2000/svg" xmlns:xlink="http://www.w3.org/1999/xlink" xml:space="preserve" xmlns:serif="http://www.serif.com/" style="fill-rule:evenodd;clip-rule:evenodd;stroke-linejoin:round;stroke-miterlimit:2;">
    <g>
        <rect x="28.35" y="28.35" width="56.69" height="85.04" style="fill-opacity:0.7;"/>
        <path d="M56.69,0L95,0C105.11,-0 113.43,8.32 113.43,18.43L113.43,113.43L56.69,113.43L56.69,0Z" style="fill-opacity:0.6;fill-rule:nonzero;"/>
        <g transform="matrix(-1,7.65714e-16,-7.65714e-16,-1,68.52,179.85)">
            <path d="M11.83,66.47L50.09,66.47C60.2,66.47 68.52,74.79 68.52,84.9L68.52,123.16L11.83,123.16L11.83,66.47Z" style="fill-opacity:0.8;fill-rule:nonzero;"/>
        </g>
    </g>
    <g transform="matrix(1,0,0,1,1.07218,10.4189)">
        <g transform="matrix(100,0,0,100,119.276,83.3315)">
            <path d="M0.298,-0.658C0.23,-0.658 0.196,-0.62 0.196,-0.543L0.196,-0.496L0.342,-0.496L0.342,-0.432L0.198,-0.432L0.198,-0.073C0.23,-0.068 0.252,-0.065 0.265,-0.062C0.275,-0.06 0.28,-0.054 0.28,-0.043L0.28,-0L0.032,-0L0.032,-0.043C0.032,-0.054 0.037,-0.06 0.047,-0.062L0.109,-0.073L0.109,-0.43L0.053,-0.437C0.037,-0.441 0.029,-0.449 0.029,-0.46L0.029,-0.496L0.109,-0.496L0.109,-0.545C0.109,-0.604 0.125,-0.649 0.156,-0.68C0.187,-0.711 0.229,-0.727 0.283,-0.727C0.303,-0.727 0.324,-0.724 0.346,-0.717L0.344,-0.672C0.344,-0.666 0.341,-0.662 0.335,-0.66C0.331,-0.659 0.323,-0.658 0.312,-0.658L0.298,-0.658Z" style="fill-rule:nonzero;"/>
        </g>
        <g transform="matrix(100,0,0,100,153.876,83.3315)">
            <path d="M0.264,-0.514C0.301,-0.514 0.334,-0.508 0.364,-0.496C0.393,-0.484 0.419,-0.467 0.441,-0.444C0.462,-0.423 0.478,-0.395 0.489,-0.362C0.5,-0.329 0.506,-0.293 0.506,-0.254C0.506,-0.215 0.5,-0.179 0.489,-0.146C0.478,-0.113 0.462,-0.085 0.441,-0.064C0.419,-0.041 0.393,-0.024 0.364,-0.012C0.334,-0 0.301,0.006 0.264,0.006C0.227,0.006 0.194,-0 0.164,-0.012C0.135,-0.024 0.109,-0.041 0.087,-0.064C0.067,-0.085 0.051,-0.112 0.038,-0.146C0.027,-0.175 0.022,-0.211 0.022,-0.254C0.022,-0.297 0.027,-0.333 0.038,-0.362C0.051,-0.396 0.067,-0.423 0.087,-0.444C0.109,-0.467 0.135,-0.484 0.164,-0.496C0.194,-0.508 0.227,-0.514 0.264,-0.514ZM0.264,-0.062C0.315,-0.062 0.353,-0.079 0.376,-0.112C0.401,-0.147 0.413,-0.194 0.413,-0.253C0.413,-0.312 0.401,-0.359 0.376,-0.394C0.353,-0.427 0.315,-0.444 0.264,-0.444C0.238,-0.444 0.216,-0.44 0.198,-0.432C0.181,-0.424 0.165,-0.411 0.152,-0.394C0.139,-0.377 0.13,-0.357 0.124,-0.334C0.117,-0.307 0.114,-0.28 0.114,-0.252C0.114,-0.225 0.117,-0.199 0.124,-0.172C0.13,-0.149 0.139,-0.129 0.152,-0.112C0.163,-0.097 0.179,-0.085 0.198,-0.076C0.219,-0.067 0.241,-0.062 0.264,-0.062Z" style="fill-rule:nonzero;"/>
        </g>
        <g transform="matrix(100,0,0,100,206.676,83.3315)">
            <path d="M0.191,-0.403C0.228,-0.478 0.28,-0.516 0.345,-0.516C0.371,-0.516 0.394,-0.51 0.414,-0.498L0.403,-0.431C0.401,-0.422 0.397,-0.418 0.39,-0.418C0.385,-0.418 0.377,-0.42 0.366,-0.423C0.355,-0.426 0.341,-0.428 0.325,-0.428C0.266,-0.428 0.223,-0.393 0.195,-0.322L0.195,-0.072L0.252,-0.061C0.262,-0.059 0.267,-0.053 0.267,-0.042L0.267,-0L0.034,-0L0.034,-0.042C0.034,-0.053 0.039,-0.059 0.049,-0.061L0.106,-0.072L0.106,-0.433C0.074,-0.439 0.055,-0.443 0.049,-0.445C0.039,-0.447 0.034,-0.453 0.034,-0.464L0.034,-0.506L0.157,-0.506C0.166,-0.506 0.173,-0.504 0.176,-0.501C0.179,-0.498 0.182,-0.491 0.184,-0.482L0.19,-0.403L0.191,-0.403Z" style="fill-rule:nonzero;"/>
        </g>
        <g transform="matrix(100,0,0,100,249.876,83.3315)">
            <path d="M0.217,0.008C0.178,0.008 0.148,-0.003 0.125,-0.026C0.104,-0.047 0.093,-0.079 0.093,-0.122L0.093,-0.432L0.032,-0.432C0.026,-0.432 0.021,-0.433 0.018,-0.436C0.015,-0.439 0.013,-0.444 0.013,-0.451L0.013,-0.486L0.096,-0.497L0.116,-0.654C0.116,-0.659 0.118,-0.663 0.122,-0.666C0.125,-0.669 0.13,-0.67 0.136,-0.67L0.181,-0.67L0.181,-0.496L0.326,-0.496L0.326,-0.431L0.181,-0.431L0.181,-0.127C0.181,-0.105 0.186,-0.089 0.196,-0.079C0.206,-0.069 0.22,-0.064 0.237,-0.064C0.244,-0.064 0.253,-0.065 0.262,-0.068C0.268,-0.07 0.274,-0.073 0.28,-0.076C0.282,-0.077 0.29,-0.083 0.292,-0.084C0.297,-0.087 0.301,-0.088 0.302,-0.088C0.307,-0.088 0.311,-0.085 0.314,-0.08L0.34,-0.038C0.322,-0.023 0.303,-0.011 0.284,-0.004C0.262,0.004 0.24,0.008 0.217,0.008Z" style="fill-rule:nonzero;"/>
        </g>
        <g transform="matrix(100,0,0,100,286.176,83.3315)">
            <path d="M0.282,-0.062C0.332,-0.062 0.378,-0.085 0.419,-0.132L0.419,-0.432C0.413,-0.434 0.394,-0.438 0.362,-0.444C0.352,-0.446 0.347,-0.452 0.347,-0.463L0.347,-0.506L0.508,-0.506L0.508,-0.072C0.54,-0.066 0.559,-0.062 0.565,-0.06C0.575,-0.058 0.58,-0.052 0.58,-0.042L0.58,0.001L0.455,0.001C0.443,0.001 0.435,-0.005 0.431,-0.018L0.424,-0.072C0.376,-0.018 0.32,0.009 0.256,0.009C0.202,0.009 0.16,-0.009 0.13,-0.044C0.101,-0.079 0.086,-0.126 0.086,-0.183L0.086,-0.433C0.055,-0.439 0.037,-0.443 0.03,-0.445C0.019,-0.447 0.014,-0.453 0.014,-0.464L0.014,-0.506L0.176,-0.506L0.176,-0.184C0.176,-0.144 0.185,-0.114 0.202,-0.094C0.22,-0.073 0.247,-0.063 0.282,-0.063L0.282,-0.062Z" style="fill-rule:nonzero;"/>
        </g>
        <g transform="matrix(100,0,0,100,346.776,83.3315)">
            <path d="M0.19,-0.434C0.24,-0.488 0.296,-0.515 0.358,-0.515C0.413,-0.515 0.455,-0.497 0.484,-0.462C0.513,-0.427 0.527,-0.381 0.527,-0.323L0.527,-0.074C0.559,-0.068 0.578,-0.064 0.584,-0.062C0.595,-0.06 0.6,-0.054 0.6,-0.043L0.6,-0L0.438,-0L0.438,-0.322C0.438,-0.403 0.403,-0.444 0.332,-0.444C0.282,-0.444 0.236,-0.42 0.194,-0.373L0.194,-0.073C0.197,-0.073 0.216,-0.069 0.252,-0.061C0.262,-0.059 0.267,-0.053 0.267,-0.042L0.267,-0L0.034,-0L0.034,-0.042C0.034,-0.053 0.039,-0.059 0.048,-0.061L0.106,-0.072L0.106,-0.433C0.073,-0.439 0.053,-0.443 0.048,-0.445C0.039,-0.447 0.034,-0.453 0.034,-0.464L0.034,-0.506L0.158,-0.506C0.17,-0.506 0.178,-0.5 0.182,-0.488L0.19,-0.433L0.19,-0.434Z" style="fill-rule:nonzero;"/>
        </g>
        <g transform="matrix(100,0,0,100,409.276,83.3315)">
            <path d="M0.472,-0.064C0.477,-0.063 0.48,-0.061 0.483,-0.058C0.486,-0.054 0.487,-0.05 0.487,-0.045L0.487,-0.002L0.383,-0.002C0.377,-0.002 0.37,-0.003 0.362,-0.006C0.357,-0.007 0.354,-0.013 0.352,-0.022L0.342,-0.07L0.302,-0.037C0.291,-0.028 0.277,-0.02 0.262,-0.013C0.247,-0.006 0.233,-0.001 0.218,0.002C0.205,0.005 0.187,0.007 0.164,0.007C0.145,0.007 0.127,0.004 0.11,-0.002C0.089,-0.009 0.074,-0.017 0.065,-0.026C0.053,-0.037 0.043,-0.051 0.035,-0.068C0.028,-0.083 0.024,-0.103 0.024,-0.128C0.024,-0.149 0.029,-0.169 0.04,-0.186C0.052,-0.205 0.07,-0.222 0.094,-0.236C0.121,-0.251 0.153,-0.263 0.19,-0.272C0.229,-0.281 0.277,-0.285 0.336,-0.285L0.336,-0.324C0.336,-0.363 0.327,-0.393 0.31,-0.414C0.293,-0.435 0.268,-0.445 0.235,-0.445C0.214,-0.445 0.195,-0.442 0.18,-0.436C0.163,-0.429 0.15,-0.423 0.142,-0.418C0.138,-0.415 0.134,-0.412 0.129,-0.409C0.124,-0.406 0.118,-0.403 0.113,-0.4C0.106,-0.395 0.098,-0.392 0.09,-0.392C0.083,-0.392 0.077,-0.393 0.074,-0.396C0.07,-0.399 0.067,-0.403 0.064,-0.408L0.048,-0.436C0.074,-0.461 0.104,-0.481 0.138,-0.496C0.169,-0.509 0.205,-0.516 0.246,-0.516C0.276,-0.516 0.301,-0.511 0.322,-0.502C0.345,-0.492 0.363,-0.479 0.377,-0.464C0.392,-0.449 0.403,-0.429 0.411,-0.404C0.418,-0.382 0.422,-0.356 0.422,-0.326L0.422,-0.073C0.454,-0.066 0.471,-0.063 0.472,-0.062L0.472,-0.064ZM0.334,-0.228C0.291,-0.228 0.256,-0.226 0.23,-0.221C0.205,-0.216 0.181,-0.209 0.16,-0.2C0.141,-0.191 0.128,-0.181 0.12,-0.17C0.112,-0.158 0.108,-0.145 0.108,-0.132C0.108,-0.121 0.11,-0.11 0.115,-0.098C0.119,-0.088 0.125,-0.08 0.133,-0.074C0.141,-0.068 0.15,-0.064 0.159,-0.061C0.17,-0.058 0.181,-0.056 0.192,-0.056C0.205,-0.056 0.219,-0.058 0.234,-0.061C0.247,-0.064 0.26,-0.069 0.271,-0.074C0.281,-0.079 0.292,-0.086 0.304,-0.096C0.311,-0.101 0.321,-0.111 0.334,-0.124L0.334,-0.228Z" style="fill-rule:nonzero;"/>
        </g>
    </g>
</svg>
