<svg id="Layer_1" data-name="Layer 1" xmlns="http://www.w3.org/2000/svg" viewBox="0 0 88.64 58.48">
  <defs>
    <style>
      .cls-1 {
        fill: #d43747;
      }

      .cls-2 {
        fill: #fff;
      }
    </style>
  </defs>
  <title>emailflow_white_small</title>
  <g>
    <path class="cls-1" d="M7.23,77.43A4.63,4.63,0,0,1,5,76.83,1.94,1.94,0,0,1,3.87,75V22.23A2.84,2.84,0,0,1,5,19.67,4,4,0,0,1,7.23,19a4.7,4.7,0,0,1,2.2.48,5.6,5.6,0,0,1,1.68,1.4,12.21,12.21,0,0,1,1.48,2.36L25.23,47.27,37.87,23.19a15.07,15.07,0,0,1,1.56-2.36,5.6,5.6,0,0,1,1.68-1.4A4.51,4.51,0,0,1,43.23,19a3.93,3.93,0,0,1,2.36.72,2.94,2.94,0,0,1,1,2.56V75a2,2,0,0,1-1,1.8,4.79,4.79,0,0,1-4.64,0,2,2,0,0,1-1-1.8V33L27.71,55.75a4.16,4.16,0,0,1-1.2,1.4,2.39,2.39,0,0,1-1.36.44,2.46,2.46,0,0,1-1.24-.4,3.62,3.62,0,0,1-1.24-1.44l-12.08-23V75a2,2,0,0,1-1,1.8A4.56,4.56,0,0,1,7.23,77.43Z" transform="translate(-3.87 -18.95)"/>
    <path class="cls-2" d="M61.07,77.43a3.4,3.4,0,0,1-2.2-.68A2,2,0,0,1,58,75.11V21.35a2,2,0,0,1,1-1.8,3.84,3.84,0,0,1,2.08-.6H74.83A29,29,0,0,1,83,20a11,11,0,0,1,5.92,4c1.46,2,2.2,4.83,2.2,8.56A17.4,17.4,0,0,1,89.23,41a10.37,10.37,0,0,1-5,4.72,14.18,14.18,0,0,1,4.32,2.6,11.22,11.22,0,0,1,2.88,4.24,18.53,18.53,0,0,1,1,6.76v1.44c0,4.11-.7,7.37-2.08,9.8a12.13,12.13,0,0,1-5.68,5.24,19.66,19.66,0,0,1-8.08,1.6ZM64.75,43h10q4.95,0,7.28-2.2c1.54-1.47,2.32-3.85,2.32-7.16a9.33,9.33,0,0,0-1.24-5.16,6.64,6.64,0,0,0-3.44-2.64A15.76,15.76,0,0,0,74.51,25H64.75Zm0,28.4h10.8q4.88,0,7.56-2.64c1.78-1.76,2.68-4.53,2.68-8.32V59c0-3.84-.9-6.55-2.68-8.12s-4.31-2.36-7.56-2.36H64.75Z" transform="translate(-3.87 -18.95)"/>
  </g>
</svg>
