<svg id="Layer_1" data-name="Layer 1" xmlns="http://www.w3.org/2000/svg" viewBox="0 0 733.71 209.65">
  <defs>
    <style>
      .cls-1 {
        fill: #231f20;
      }

      .cls-2 {
        fill: #00a651;
      }

      .cls-3 {
        fill: #ed1c24;
      }
    </style>
  </defs>
  <title>expenso_black</title>
  <g>
    <path class="cls-1" d="M83.6,120.41H68.48V98.09H46V82.74H68.48V60.3H83.6V82.74h22.56V98.09H83.6Z" transform="translate(-10.61 -10.9)"/>
    <path class="cls-1" d="M162.55,158.51H144q-4.22,0-6.41-2a6.46,6.46,0,0,1-2.2-5.07,6.61,6.61,0,0,1,2.14-5.12q2.13-2,6.47-2h18.52q4.33,0,6.47,2a7.17,7.17,0,0,1,0,10.19C167.64,157.85,165.48,158.51,162.55,158.51Z" transform="translate(-10.61 -10.9)"/>
  </g>
  <g>
    <path class="cls-1" d="M301.61,117.11H247.45a24.86,24.86,0,0,0,3.78,11.23,21.94,21.94,0,0,0,7.91,7.46,20.72,20.72,0,0,0,10.14,2.63,21.25,21.25,0,0,0,11.27-2.85,16.63,16.63,0,0,0,6.85-8.36h12.35a29.14,29.14,0,0,1-6.21,10.92A31.22,31.22,0,0,1,283,145.85a33.35,33.35,0,0,1-30.34-1.79,32.92,32.92,0,0,1-12-12.48,36.66,36.66,0,0,1,0-34.7,33.27,33.27,0,0,1,12-12.55,31.88,31.88,0,0,1,16.87-4.6,31.13,31.13,0,0,1,16.55,4.51,31.94,31.94,0,0,1,11.55,12.07,33.19,33.19,0,0,1,4.16,16.32C301.8,113.23,301.74,114.72,301.61,117.11Zm-11.07-9.73a16.16,16.16,0,0,0-3.27-8.58,21.13,21.13,0,0,0-7.71-6.34,22.78,22.78,0,0,0-10.21-2.36,22.43,22.43,0,0,0-9.41,2A20.84,20.84,0,0,0,252.35,98a22.36,22.36,0,0,0-4.38,9.35Z" transform="translate(-10.61 -10.9)"/>
    <path class="cls-1" d="M328.05,113.59,306,81.58H319l16.65,24.58h.06l16.71-24.58h13l-22.08,32,22.72,33.29H352.82L335.6,121.4l-17.28,25.48H305.39Z" transform="translate(-10.61 -10.9)"/>
    <path class="cls-1" d="M389.69,81.58v14a28.74,28.74,0,0,1,10.21-11.4,26.83,26.83,0,0,1,15-4.35,30.29,30.29,0,0,1,16.39,4.61,32.55,32.55,0,0,1,11.58,12.51,37.7,37.7,0,0,1,0,34.7,32.63,32.63,0,0,1-11.55,12.51A29.94,29.94,0,0,1,415,148.73a27.59,27.59,0,0,1-14.82-4.19A26.91,26.91,0,0,1,390,133.24l.19,7.36v28.55h-11V81.58Zm34.92,53.84a22.47,22.47,0,0,0,8.39-8.61,25.28,25.28,0,0,0,3.1-12.58A25,25,0,0,0,433,101.81a22.73,22.73,0,0,0-8.35-8.64A22.39,22.39,0,0,0,413.06,90a21.76,21.76,0,0,0-11.56,3.23,23.46,23.46,0,0,0-8.35,8.77,26,26,0,0,0,0,24.55,23,23,0,0,0,8.39,8.74,22,22,0,0,0,11.49,3.17A22.54,22.54,0,0,0,424.61,135.42Z" transform="translate(-10.61 -10.9)"/>
    <path class="cls-1" d="M522.52,117.11H468.36a24.86,24.86,0,0,0,3.78,11.23,21.94,21.94,0,0,0,7.91,7.46,20.69,20.69,0,0,0,10.14,2.63,21.25,21.25,0,0,0,11.27-2.85,16.63,16.63,0,0,0,6.85-8.36h12.35a29.42,29.42,0,0,1-6.21,10.92,31.22,31.22,0,0,1-10.56,7.71,33.35,33.35,0,0,1-30.34-1.79,32.92,32.92,0,0,1-12-12.48,36.59,36.59,0,0,1,0-34.7,33.19,33.19,0,0,1,12-12.55,31.88,31.88,0,0,1,16.87-4.6A31.13,31.13,0,0,1,507,84.24a32.09,32.09,0,0,1,11.55,12.07,33.29,33.29,0,0,1,4.16,16.32C522.71,113.23,522.65,114.72,522.52,117.11Zm-11.08-9.73a16.06,16.06,0,0,0-3.26-8.58,21.21,21.21,0,0,0-7.71-6.34,22.78,22.78,0,0,0-10.21-2.36,22.43,22.43,0,0,0-9.41,2A20.84,20.84,0,0,0,473.26,98a22.36,22.36,0,0,0-4.38,9.35Z" transform="translate(-10.61 -10.9)"/>
    <path class="cls-1" d="M547.87,81.58V94.19a22.07,22.07,0,0,1,5.44-7.49,26.66,26.66,0,0,1,8.38-5.12,28.34,28.34,0,0,1,10.25-1.85q13,0,19.71,8.06t6.72,23.69v35.4h-11V111.67q0-11-4.73-16.32T569.12,90a20.22,20.22,0,0,0-10.27,2.75,20.44,20.44,0,0,0-7.65,7.91,23.93,23.93,0,0,0-2.88,11.87v34.32h-11V81.58Z" transform="translate(-10.61 -10.9)"/>
    <path class="cls-1" d="M625.61,145.66a22.21,22.21,0,0,1-9.28-8.07,20,20,0,0,1-3.11-10.75l10.63.06a11.82,11.82,0,0,0,2,6.53,13.2,13.2,0,0,0,5.76,4.64,21.77,21.77,0,0,0,9,1.7q7.3,0,11.14-2.85a9.28,9.28,0,0,0,3.84-7.9,8,8,0,0,0-1.89-5.61,12.16,12.16,0,0,0-5.34-3.2,67.72,67.72,0,0,0-9.22-2.08q-10.56-1.53-16.71-5.85T616.3,98.87a18.44,18.44,0,0,1,2.65-9.8,18.06,18.06,0,0,1,7.91-6.85,29.72,29.72,0,0,1,12.8-2.49,32.54,32.54,0,0,1,13.13,2.49,20.58,20.58,0,0,1,8.83,7,17.23,17.23,0,0,1,3.14,10.11H653.94a9.65,9.65,0,0,0-4-7.55q-3.76-2.82-10.24-2.82-6.07,0-9.28,2.76a8.74,8.74,0,0,0-3.2,6.91,8.36,8.36,0,0,0,1.41,5.06,10.33,10.33,0,0,0,4.74,3.2,50.93,50.93,0,0,0,9.53,2.3,70.1,70.1,0,0,1,12.29,3,18.86,18.86,0,0,1,8.36,5.73q3.29,3.93,3.29,10.59a18.56,18.56,0,0,1-3.29,11.11,20,20,0,0,1-9.22,6.88,38.08,38.08,0,0,1-13.8,2.3A33.1,33.1,0,0,1,625.61,145.66Z" transform="translate(-10.61 -10.9)"/>
    <path class="cls-1" d="M693,144.12a33.23,33.23,0,0,1-12.23-12.51,36.11,36.11,0,0,1,0-34.73,33.9,33.9,0,0,1,59.08,0,36.16,36.16,0,0,1,0,34.76A34.28,34.28,0,0,1,693,144.12Zm29-8.89a22.36,22.36,0,0,0,8.25-8.65,26.72,26.72,0,0,0,0-24.64,22.58,22.58,0,0,0-8.25-8.68,23.13,23.13,0,0,0-23.34,0,22.83,22.83,0,0,0-8.32,8.68,26.48,26.48,0,0,0,0,24.64,22.46,22.46,0,0,0,20,11.78A22.31,22.31,0,0,0,722.05,135.23Z" transform="translate(-10.61 -10.9)"/>
  </g>
  <g>
    <path class="cls-2" d="M126.82,205.84a90.83,90.83,0,1,1,59.3-147.08,103.59,103.59,0,0,1,14.64-3.86,104.77,104.77,0,1,0-66,163.87A103.17,103.17,0,0,1,126.82,205.84Z" transform="translate(-10.61 -10.9)"/>
    <path class="cls-3" d="M220.26,115.73a104.2,104.2,0,0,0-11.6-47.9,91.4,91.4,0,0,0-14.3,3,90.79,90.79,0,0,1-53.24,132,91.46,91.46,0,0,0,8.24,12.07A105,105,0,0,0,220.26,115.73Z" transform="translate(-10.61 -10.9)"/>
  </g>
</svg>
